<svg width="20" height="21" viewBox="0 0 20 21" fill="none" xmlns="http://www.w3.org/2000/svg">
<g clip-path="url(#clip0)">
<path d="M18.5977 4.77113H14.3242V0.700115C14.3242 0.519169 14.1773 0.372314 13.9964 0.372314H6.00331C5.82237 0.372314 5.67551 0.519169 5.67551 0.700115V4.77113H1.40257C1.23212 4.77113 1.08841 4.90435 1.07582 5.07428L0.00116081 19.3616C-0.00565743 19.4524 0.0258114 19.5426 0.0871756 19.6081C0.14854 19.6753 0.236128 19.7136 0.327912 19.7136H19.6728C19.7646 19.7136 19.8522 19.6753 19.913 19.6087C19.9749 19.5426 20.0064 19.4524 19.9996 19.3611L18.9249 5.07428C18.9123 4.90435 18.7686 4.77113 18.5977 4.77113ZM13.9964 6.84859C14.1621 6.84859 14.2969 6.98286 14.2969 7.14755C14.2969 7.31276 14.1621 7.44755 13.9964 7.44755C13.8307 7.44755 13.6959 7.31276 13.6959 7.14755C13.6959 6.98286 13.8307 6.84859 13.9964 6.84859ZM6.33111 1.02844H13.6686V4.77165H6.33111V1.02844ZM6.00331 6.84859C6.16905 6.84859 6.30384 6.98286 6.30384 7.14755C6.30384 7.31276 6.16905 7.44755 6.00331 7.44755C5.83758 7.44755 5.70279 7.31276 5.70279 7.14755C5.70279 6.98286 5.83758 6.84859 6.00331 6.84859ZM0.680887 19.0585L1.70625 5.42725H5.67551V6.25488C5.30995 6.38915 5.04718 6.7374 5.04718 7.14807C5.04718 7.67518 5.47621 8.10368 6.00331 8.10368C6.53041 8.10368 6.95944 7.67518 6.95944 7.14807C6.95944 6.7374 6.69667 6.38915 6.33111 6.25488V5.42725H13.6686V6.25488C13.303 6.38915 13.0403 6.7374 13.0403 7.14807C13.0403 7.67518 13.4693 8.10368 13.9964 8.10368C14.5235 8.10368 14.9525 7.67518 14.9525 7.14807C14.9525 6.7374 14.6898 6.38915 14.3242 6.25488V5.42725H18.294L19.3193 19.0585H0.680887Z" fill="#010002"/>
</g>
<defs>
<clipPath id="clip0">
<rect width="20" height="20" fill="white" transform="translate(0 0.0429688)"/>
</clipPath>
</defs>
</svg>
