<svg width="64" height="64" viewBox="0 0 64 64" fill="none" xmlns="http://www.w3.org/2000/svg">
<path d="M59.6425 43.6853C62.2621 37.4736 62.7131 30.5605 60.9228 24.0611C59.1325 17.5616 55.2052 11.8546 49.7743 7.86036C44.3435 3.86615 37.7255 1.81758 30.9878 2.04503C24.2501 2.27249 17.7854 4.7627 12.6363 9.11407C7.48712 13.4654 3.95367 19.4243 2.60576 26.0297C1.25785 32.6351 2.17406 39.502 5.20664 45.523C8.23921 51.5439 13.2114 56.3679 19.3212 59.2171C25.4311 62.0662 32.3226 62.7744 38.8842 61.2274" stroke="#323031" stroke-width="3" stroke-linejoin="round"/>
<path d="M11.491 39.228V26.228C11.491 25.9746 11.6043 25.7746 11.831 25.628C12.0577 25.4813 12.3243 25.408 12.631 25.408H16.491C19.171 25.408 20.511 26.5813 20.511 28.928C20.511 30.5546 19.9443 31.6146 18.811 32.108C19.491 32.3746 20.0043 32.7546 20.351 33.248C20.6977 33.728 20.871 34.4346 20.871 35.368V35.788C20.871 37.268 20.511 38.348 19.791 39.028C19.071 39.6946 18.0977 40.028 16.871 40.028H12.631C12.2977 40.028 12.0243 39.948 11.811 39.788C11.5977 39.628 11.491 39.4413 11.491 39.228ZM14.071 37.748H16.331C17.6243 37.748 18.271 37.0213 18.271 35.568V35.248C18.271 34.5013 18.1043 33.9613 17.771 33.628C17.451 33.2946 16.971 33.128 16.331 33.128H14.071V37.748ZM14.071 31.088H16.311C16.831 31.088 17.2243 30.9346 17.491 30.628C17.771 30.3213 17.911 29.9013 17.911 29.368C17.911 28.848 17.7643 28.4413 17.471 28.148C17.191 27.8413 16.7977 27.688 16.291 27.688H14.071V31.088ZM22.7215 39.208V26.208C22.7215 25.9413 22.8482 25.7413 23.1015 25.608C23.3548 25.4746 23.6615 25.408 24.0215 25.408C24.3815 25.408 24.6882 25.4746 24.9415 25.608C25.1948 25.7413 25.3215 25.9413 25.3215 26.208V37.748H30.2015C30.4415 37.748 30.6282 37.8613 30.7615 38.088C30.9082 38.3146 30.9815 38.5813 30.9815 38.888C30.9815 39.1946 30.9082 39.4613 30.7615 39.688C30.6282 39.9146 30.4415 40.028 30.2015 40.028H23.8615C23.5548 40.028 23.2882 39.9546 23.0615 39.808C22.8348 39.6613 22.7215 39.4613 22.7215 39.208ZM32.0146 35.568V29.988C32.0146 28.4013 32.4346 27.2413 33.2746 26.508C34.1279 25.7746 35.2679 25.408 36.6946 25.408C38.1213 25.408 39.2613 25.7746 40.1146 26.508C40.9679 27.2413 41.3946 28.4013 41.3946 29.988V35.568C41.3946 37.1546 40.9679 38.3146 40.1146 39.048C39.2613 39.7813 38.1213 40.148 36.6946 40.148C35.2679 40.148 34.1279 39.7813 33.2746 39.048C32.4346 38.3146 32.0146 37.1546 32.0146 35.568ZM34.6146 35.568C34.6146 37.1013 35.3079 37.868 36.6946 37.868C38.0946 37.868 38.7946 37.1013 38.7946 35.568V29.988C38.7946 28.4546 38.0946 27.688 36.6946 27.688C35.3079 27.688 34.6146 28.4546 34.6146 29.988V35.568ZM43.4599 35.568V29.988C43.4599 28.4146 43.8799 27.2613 44.7199 26.528C45.5733 25.7813 46.6866 25.408 48.0599 25.408C49.4733 25.408 50.6199 25.7546 51.4999 26.448C52.3933 27.1413 52.8399 28.0746 52.8399 29.248C52.8399 29.728 52.7333 30.0546 52.5199 30.228C52.3199 30.4013 51.9933 30.488 51.5399 30.488C50.6866 30.488 50.2533 30.2146 50.2399 29.668C50.1999 29.0813 50.0333 28.608 49.7399 28.248C49.4466 27.8746 48.9199 27.688 48.1599 27.688C46.7599 27.688 46.0599 28.4546 46.0599 29.988V35.568C46.0599 37.1013 46.7533 37.868 48.1399 37.868C48.8066 37.868 49.3199 37.6746 49.6799 37.288C50.0533 36.9013 50.2399 36.328 50.2399 35.568V34.388H48.6199C48.3666 34.388 48.1666 34.288 48.0199 34.088C47.8866 33.888 47.8199 33.648 47.8199 33.368C47.8199 33.1013 47.8933 32.868 48.0399 32.668C48.1866 32.4546 48.3799 32.348 48.6199 32.348H52.0199C52.2733 32.348 52.4733 32.4346 52.6199 32.608C52.7666 32.768 52.8399 32.9613 52.8399 33.188V35.568C52.8399 37.1546 52.4133 38.3146 51.5599 39.048C50.7066 39.7813 49.5666 40.148 48.1399 40.148C46.7133 40.148 45.5733 39.7813 44.7199 39.048C43.8799 38.3146 43.4599 37.1546 43.4599 35.568Z" fill="#323031"/>
</svg>
