<svg width="64" height="64" viewBox="0 0 64 64" fill="none" xmlns="http://www.w3.org/2000/svg">
<g clip-path="url(#clip0)">
<path d="M37.358 20.8468H40.5334V15.3163C39.9856 15.241 38.1015 15.0714 35.9073 15.0714C31.329 15.0714 28.1928 17.9511 28.1928 23.2439V28.1149H23.1406V34.2975H28.1928V49.854H34.387V34.2989H39.2348L40.0044 28.1163H34.3856V23.8569C34.387 22.07 34.8682 20.8468 37.358 20.8468Z" fill="#323031"/>
</g>
<path d="M59.6425 43.6853C62.2621 37.4736 62.7131 30.5605 60.9228 24.0611C59.1325 17.5616 55.2052 11.8546 49.7743 7.86036C44.3435 3.86615 37.7255 1.81758 30.9878 2.04503C24.2501 2.27249 17.7854 4.7627 12.6363 9.11407C7.48712 13.4654 3.95367 19.4243 2.60576 26.0297C1.25785 32.6351 2.17406 39.502 5.20664 45.523C8.23921 51.5439 13.2114 56.3679 19.3212 59.2171C25.4311 62.0662 32.3226 62.7744 38.8842 61.2274" stroke="#323031" stroke-width="3" stroke-linejoin="round"/>
<defs>
<clipPath id="clip0">
<rect width="34.7826" height="34.7826" fill="white" transform="translate(14.1738 15.0714)"/>
</clipPath>
</defs>
</svg>
