<svg width="180" height="180" viewBox="0 0 180 180" fill="none" xmlns="http://www.w3.org/2000/svg">
<g clip-path="url(#clip0)">
<path d="M46 161.8V31.8C46 29.6667 46.8667 27.8 48.6 26.2C50.4667 24.6 52.8667 23.8 55.8 23.8H96C109.733 23.8 120.733 27.4667 129 34.8C137.267 42 141.4 53.3333 141.4 68.8V70C141.4 85.6 137.067 97.0667 128.4 104.4C119.867 111.733 108.533 115.4 94.4 115.4H72V161.8C72 164.333 70.6667 166.333 68 167.8C65.4667 169.267 62.4667 170 59 170C55.4 170 52.3333 169.267 49.8 167.8C47.2667 166.333 46 164.333 46 161.8ZM72 95H94.4C101.067 95 106.2 93.0667 109.8 89.2C113.533 85.3333 115.4 79.6 115.4 72V69.6C115.4 62 113.533 56.2667 109.8 52.4C106.2 48.5333 101.067 46.6 94.4 46.6H72V95Z" fill="#E85F5C"/>
</g>
<defs>
<clipPath id="clip0">
<rect width="180" height="180" fill="white"/>
</clipPath>
</defs>
</svg>
