<svg width="165" height="57" viewBox="0 0 165 57" fill="none" xmlns="http://www.w3.org/2000/svg">
<path d="M3.195 44.65V14.41C3.195 14.05 3.33 13.75 3.6 13.51C3.9 13.24 4.275 13.105 4.725 13.105H13.23C16.11 13.105 18.42 13.885 20.16 15.445C21.9 17.005 22.77 19.465 22.77 22.825V23.23C22.77 26.59 21.885 29.065 20.115 30.655C18.345 32.215 15.99 32.995 13.05 32.995H6.975V44.65C6.975 45.07 6.78 45.4 6.39 45.64C6.03 45.88 5.595 46 5.085 46C4.575 46 4.125 45.88 3.735 45.64C3.375 45.4 3.195 45.07 3.195 44.65ZM6.975 29.845H13.05C14.94 29.845 16.395 29.32 17.415 28.27C18.465 27.19 18.99 25.585 18.99 23.455V22.915C18.99 20.785 18.465 19.195 17.415 18.145C16.395 17.065 14.94 16.525 13.05 16.525H6.975V29.845ZM26.917 18.19C26.467 17.74 26.242 17.23 26.242 16.66C26.242 16.09 26.467 15.595 26.917 15.175C27.367 14.755 27.922 14.545 28.582 14.545C29.212 14.545 29.752 14.755 30.202 15.175C30.652 15.595 30.877 16.09 30.877 16.66C30.877 17.23 30.652 17.74 30.202 18.19C29.752 18.61 29.212 18.82 28.582 18.82C27.952 18.82 27.397 18.61 26.917 18.19ZM26.737 44.65V25.975C26.737 25.585 26.917 25.27 27.277 25.03C27.637 24.79 28.072 24.67 28.582 24.67C29.122 24.67 29.572 24.79 29.932 25.03C30.292 25.27 30.472 25.585 30.472 25.975V44.65C30.472 44.98 30.277 45.295 29.887 45.595C29.527 45.865 29.092 46 28.582 46C28.072 46 27.637 45.865 27.277 45.595C26.917 45.325 26.737 45.01 26.737 44.65ZM34.2148 44.515C34.2148 44.245 34.2898 43.99 34.4398 43.75L40.2448 35.2L34.6648 27.01C34.4848 26.77 34.3948 26.53 34.3948 26.29C34.3948 25.84 34.6648 25.42 35.2048 25.03C35.7448 24.61 36.2698 24.4 36.7798 24.4C37.1998 24.4 37.5298 24.58 37.7698 24.94L42.7198 32.68L47.7598 24.94C47.9698 24.58 48.2998 24.4 48.7498 24.4C49.2298 24.4 49.7398 24.61 50.2798 25.03C50.8198 25.45 51.0898 25.87 51.0898 26.29C51.0898 26.53 51.0148 26.77 50.8648 27.01L45.1948 35.2L51.0448 43.75C51.1948 43.96 51.2698 44.215 51.2698 44.515C51.2698 44.905 51.0148 45.31 50.5048 45.73C49.9948 46.15 49.4848 46.36 48.9748 46.36C48.4948 46.36 48.1498 46.18 47.9398 45.82L42.7198 37.855L37.5448 45.82C37.3048 46.18 36.9598 46.36 36.5098 46.36C36.0598 46.36 35.5648 46.165 35.0248 45.775C34.4848 45.355 34.2148 44.935 34.2148 44.515Z" fill="#323031"/>
<path d="M53.5549 40.375C53.5549 38.035 54.4549 36.415 56.2549 35.515C58.0549 34.585 60.6649 34.12 64.0849 34.12H66.2449V33.175C66.2449 31.675 65.8249 30.37 64.9849 29.26C64.1749 28.15 62.9449 27.595 61.2949 27.595C60.0349 27.595 58.9249 27.82 57.9649 28.27C57.0049 28.69 56.4799 28.9 56.3899 28.9C55.9699 28.9 55.6249 28.705 55.3549 28.315C55.1149 27.895 54.9949 27.46 54.9949 27.01C54.9949 26.32 55.6699 25.72 57.0199 25.21C58.3999 24.67 59.8549 24.4 61.3849 24.4C64.3249 24.4 66.4849 25.24 67.8649 26.92C69.2749 28.57 69.9799 30.64 69.9799 33.13V44.65C69.9799 45.04 69.7999 45.37 69.4399 45.64C69.1099 45.88 68.6749 46 68.1349 46C67.6549 46 67.2499 45.88 66.9199 45.64C66.5899 45.37 66.4249 45.04 66.4249 44.65V42.85C64.3849 45.19 62.1199 46.36 59.6299 46.36C57.8299 46.36 56.3599 45.85 55.2199 44.83C54.1099 43.81 53.5549 42.325 53.5549 40.375ZM57.3349 39.97C57.3349 41.08 57.6499 41.92 58.2799 42.49C58.9099 43.06 59.7499 43.345 60.7999 43.345C62.0599 43.345 63.2749 42.85 64.4449 41.86C65.6449 40.84 66.2449 39.805 66.2449 38.755V36.415H64.6699C63.7999 36.415 63.0499 36.445 62.4199 36.505C61.7899 36.535 61.1299 36.625 60.4399 36.775C59.7799 36.895 59.2249 37.09 58.7749 37.36C58.3549 37.6 58.0099 37.945 57.7399 38.395C57.4699 38.815 57.3349 39.34 57.3349 39.97ZM73.4558 50.23C73.4558 48.04 74.6708 46.405 77.1008 45.325C75.5708 44.755 74.8058 43.75 74.8058 42.31C74.8058 40.93 75.5558 39.82 77.0558 38.98C75.3458 37.6 74.4908 35.71 74.4908 33.31V31.825C74.4908 29.635 75.2258 27.85 76.6958 26.47C78.1658 25.09 80.1008 24.4 82.5008 24.4C84.5408 24.4 86.2958 24.985 87.7658 26.155C88.6658 24.205 89.6858 23.23 90.8258 23.23C91.3058 23.23 91.6958 23.38 91.9958 23.68C92.2958 23.95 92.4458 24.265 92.4458 24.625C92.4458 25.075 92.1908 25.42 91.6808 25.66C90.6608 25.93 89.8508 26.56 89.2508 27.55C90.1808 28.66 90.6458 30.085 90.6458 31.825V33.31C90.6458 35.47 89.8808 37.255 88.3508 38.665C86.8208 40.075 84.8708 40.78 82.5008 40.78C81.2708 40.78 80.1608 40.555 79.1708 40.105C78.4208 40.555 78.0458 41.065 78.0458 41.635C78.0458 42.205 78.3908 42.655 79.0808 42.985C79.7708 43.285 80.6258 43.48 81.6458 43.57C82.6658 43.63 83.7758 43.765 84.9758 43.975C86.1758 44.185 87.2858 44.455 88.3058 44.785C89.3258 45.115 90.1808 45.7 90.8708 46.54C91.5608 47.38 91.9058 48.445 91.9058 49.735C91.9058 51.865 91.0508 53.485 89.3408 54.595C87.6608 55.735 85.4708 56.305 82.7708 56.305C80.0708 56.305 77.8358 55.75 76.0658 54.64C74.3258 53.56 73.4558 52.09 73.4558 50.23ZM77.0108 49.825C77.0108 50.995 77.5208 51.925 78.5408 52.615C79.5908 53.335 80.9858 53.695 82.7258 53.695C84.4058 53.695 85.7408 53.335 86.7308 52.615C87.7508 51.925 88.2608 50.995 88.2608 49.825C88.2608 49.345 88.1708 48.925 87.9908 48.565C87.8408 48.205 87.5858 47.905 87.2258 47.665C86.8658 47.425 86.5058 47.215 86.1458 47.035C85.7858 46.885 85.3208 46.75 84.7508 46.63C84.1808 46.54 83.7008 46.465 83.3108 46.405C82.9508 46.375 82.4558 46.33 81.8258 46.27C81.2258 46.21 80.8058 46.165 80.5658 46.135C78.1958 46.915 77.0108 48.145 77.0108 49.825ZM78.1358 33.265C78.1358 34.705 78.5258 35.89 79.3058 36.82C80.1158 37.75 81.2108 38.215 82.5908 38.215C83.9108 38.215 84.9758 37.765 85.7858 36.865C86.5958 35.935 87.0008 34.75 87.0008 33.31V31.825C87.0008 30.445 86.5958 29.29 85.7858 28.36C84.9758 27.43 83.8958 26.965 82.5458 26.965C81.1658 26.965 80.0858 27.43 79.3058 28.36C78.5258 29.26 78.1358 30.415 78.1358 31.825V33.265ZM95.6872 44.65V25.975C95.6872 25.585 95.8522 25.27 96.1822 25.03C96.5422 24.79 96.9922 24.67 97.5322 24.67C98.0122 24.67 98.4172 24.79 98.7472 25.03C99.0772 25.27 99.2422 25.585 99.2422 25.975V28.09C99.7822 27.07 100.577 26.2 101.627 25.48C102.677 24.76 103.847 24.4 105.137 24.4H106.667C107.057 24.4 107.387 24.58 107.657 24.94C107.957 25.27 108.107 25.66 108.107 26.11C108.107 26.56 107.957 26.95 107.657 27.28C107.387 27.61 107.057 27.775 106.667 27.775H105.137C103.607 27.775 102.272 28.39 101.132 29.62C99.9922 30.85 99.4222 32.44 99.4222 34.39V44.65C99.4222 44.98 99.2272 45.295 98.8372 45.595C98.4772 45.865 98.0422 46 97.5322 46C97.0222 46 96.5872 45.865 96.2272 45.595C95.8672 45.325 95.6872 45.01 95.6872 44.65ZM109.761 40.375C109.761 38.035 110.661 36.415 112.461 35.515C114.261 34.585 116.871 34.12 120.291 34.12H122.451V33.175C122.451 31.675 122.031 30.37 121.191 29.26C120.381 28.15 119.151 27.595 117.501 27.595C116.241 27.595 115.131 27.82 114.171 28.27C113.211 28.69 112.686 28.9 112.596 28.9C112.176 28.9 111.831 28.705 111.561 28.315C111.321 27.895 111.201 27.46 111.201 27.01C111.201 26.32 111.876 25.72 113.226 25.21C114.606 24.67 116.061 24.4 117.591 24.4C120.531 24.4 122.691 25.24 124.071 26.92C125.481 28.57 126.186 30.64 126.186 33.13V44.65C126.186 45.04 126.006 45.37 125.646 45.64C125.316 45.88 124.881 46 124.341 46C123.861 46 123.456 45.88 123.126 45.64C122.796 45.37 122.631 45.04 122.631 44.65V42.85C120.591 45.19 118.326 46.36 115.836 46.36C114.036 46.36 112.566 45.85 111.426 44.83C110.316 43.81 109.761 42.325 109.761 40.375ZM113.541 39.97C113.541 41.08 113.856 41.92 114.486 42.49C115.116 43.06 115.956 43.345 117.006 43.345C118.266 43.345 119.481 42.85 120.651 41.86C121.851 40.84 122.451 39.805 122.451 38.755V36.415H120.876C120.006 36.415 119.256 36.445 118.626 36.505C117.996 36.535 117.336 36.625 116.646 36.775C115.986 36.895 115.431 37.09 114.981 37.36C114.561 37.6 114.216 37.945 113.946 38.395C113.676 38.815 113.541 39.34 113.541 39.97ZM131.327 44.65V25.975C131.327 25.585 131.492 25.27 131.822 25.03C132.182 24.79 132.632 24.67 133.172 24.67C133.652 24.67 134.057 24.79 134.387 25.03C134.717 25.27 134.882 25.585 134.882 25.975V27.82C135.422 26.83 136.202 26.02 137.222 25.39C138.272 24.73 139.487 24.4 140.867 24.4C142.247 24.4 143.477 24.82 144.557 25.66C145.667 26.47 146.492 27.55 147.032 28.9C147.782 27.43 148.772 26.32 150.002 25.57C151.232 24.79 152.522 24.4 153.872 24.4C155.972 24.4 157.772 25.18 159.272 26.74C160.802 28.3 161.567 30.4 161.567 33.04V44.65C161.567 44.98 161.372 45.295 160.982 45.595C160.622 45.865 160.187 46 159.677 46C159.197 46 158.762 45.865 158.372 45.595C158.012 45.295 157.832 44.98 157.832 44.65V33.04C157.832 31.42 157.352 30.145 156.392 29.215C155.462 28.255 154.367 27.775 153.107 27.775C151.847 27.775 150.722 28.255 149.732 29.215C148.772 30.175 148.292 31.405 148.292 32.905V44.695C148.292 45.115 148.097 45.445 147.707 45.685C147.347 45.895 146.912 46 146.402 46C145.922 46 145.487 45.895 145.097 45.685C144.737 45.445 144.557 45.115 144.557 44.695V32.95C144.557 31.45 144.092 30.22 143.162 29.26C142.262 28.27 141.167 27.775 139.877 27.775C138.587 27.775 137.462 28.255 136.502 29.215C135.542 30.175 135.062 31.45 135.062 33.04V44.65C135.062 44.98 134.867 45.295 134.477 45.595C134.117 45.865 133.682 46 133.172 46C132.662 46 132.227 45.865 131.867 45.595C131.507 45.325 131.327 45.01 131.327 44.65Z" fill="#E85F5C"/>
</svg>
