<svg width="36" height="36" viewBox="0 0 36 36" fill="none" xmlns="http://www.w3.org/2000/svg">
<g clip-path="url(#clip0)">
<path d="M8.70312 13.8802H6.00163C6.458 7.65952 11.6649 2.73764 18 2.73764C23.0131 2.73764 27.5493 5.89516 29.2878 10.5948C29.5498 11.3029 30.3362 11.6646 31.0445 11.4027C31.7526 11.1407 32.1144 10.3543 31.8524 9.64611C30.8162 6.84501 28.9754 4.44806 26.529 2.71433C24.0264 0.940746 21.0771 0.00326538 18 0.00326538C14.056 0.00326538 10.348 1.53916 7.55913 4.32802C4.80664 7.08051 3.27573 10.7284 3.23622 14.6149C1.60229 15.5617 0.5 17.3285 0.5 19.349V23.9974C0.5 27.0129 2.95328 29.4662 5.96875 29.4662H8.70312C9.45822 29.4662 10.0703 28.8541 10.0703 28.099V15.2474C10.0703 14.4923 9.45822 13.8802 8.70312 13.8802ZM7.33594 26.7318H5.96875C4.46102 26.7318 3.23438 25.5051 3.23438 23.9974V19.349C3.23438 17.8412 4.46102 16.6146 5.96875 16.6146H7.33594V26.7318Z" fill="#323031"/>
<path d="M30.0312 13.8802H27.2969C26.5418 13.8802 25.9297 14.4923 25.9297 15.2474V24.6126V28.099V29.5345C25.9297 30.2884 25.3164 30.9017 24.5625 30.9017H20.3926V30.945C19.9262 30.104 19.0298 29.5345 18 29.5345C16.4899 29.5345 15.2656 30.7588 15.2656 32.2689C15.2656 33.779 16.4899 35.0033 18 35.0033C19.0298 35.0033 19.9262 34.4338 20.3926 33.5927V33.6361H24.5625C26.8241 33.6361 28.6641 31.7961 28.6641 29.5345V29.4662H30.0312C33.0467 29.4662 35.5 27.0129 35.5 23.9974V19.349C35.5 16.3335 33.0467 13.8802 30.0312 13.8802ZM32.7656 23.9974C32.7656 25.5051 31.539 26.7318 30.0312 26.7318H28.6641V24.6126V16.6146H30.0312C31.539 16.6146 32.7656 17.8412 32.7656 19.349V23.9974Z" fill="#323031"/>
</g>
<defs>
<clipPath id="clip0">
<rect width="35" height="35" fill="white" transform="translate(0.5 0.00326538)"/>
</clipPath>
</defs>
</svg>
