<svg width="64" height="64" viewBox="0 0 64 64" fill="none" xmlns="http://www.w3.org/2000/svg">
<g clip-path="url(#clip0)">
<path d="M48.9223 25.2976C48.8408 23.4495 48.542 22.1789 48.1138 21.0779C47.6722 19.9093 46.9927 18.863 46.1025 17.9932C45.2327 17.1099 44.1795 16.4235 43.0244 15.9887C41.917 15.5606 40.6531 15.2617 38.805 15.1802C36.943 15.0918 36.3519 15.0714 31.6296 15.0714C26.9072 15.0714 26.3161 15.0918 24.461 15.1733C22.6129 15.2548 21.3423 15.5539 20.2416 15.9818C19.0727 16.4235 18.0264 17.103 17.1566 17.9932C16.2733 18.863 15.5872 19.9162 15.1522 21.0713C14.724 22.1789 14.4252 23.4426 14.3437 25.2907C14.2553 27.1526 14.2349 27.7437 14.2349 32.4661C14.2349 37.1885 14.2553 37.7796 14.3368 39.6346C14.4183 41.4828 14.7174 42.7533 15.1455 43.8543C15.5872 45.023 16.2733 46.0693 17.1566 46.939C18.0264 47.8224 19.0796 48.5088 20.2347 48.9435C21.3423 49.3716 22.606 49.6705 24.4544 49.752C26.3092 49.8337 26.9005 49.8539 31.6229 49.8539C36.3453 49.8539 36.9364 49.8337 38.7914 49.752C40.6396 49.6705 41.9101 49.3716 43.0108 48.9435C45.3484 48.0398 47.1965 46.1916 48.1003 43.8543C48.5282 42.7467 48.8273 41.4828 48.9088 39.6346C48.9903 37.7796 49.0107 37.1885 49.0107 32.4661C49.0107 27.7437 49.0038 27.1526 48.9223 25.2976ZM45.7901 39.4987C45.7152 41.1974 45.4299 42.1147 45.1921 42.7263C44.6076 44.2416 43.405 45.4442 41.8897 46.0286C41.2782 46.2665 40.3542 46.5518 38.6622 46.6264C36.8276 46.7081 36.2774 46.7283 31.6365 46.7283C26.9956 46.7283 26.4384 46.7081 24.6105 46.6264C22.9118 46.5518 21.9945 46.2665 21.3829 46.0286C20.6289 45.75 19.9425 45.3083 19.3854 44.7307C18.8078 44.1667 18.3662 43.4872 18.0875 42.7332C17.8496 42.1216 17.5643 41.1974 17.4897 39.5056C17.408 37.671 17.3878 37.1206 17.3878 32.4796C17.3878 27.8387 17.408 27.2816 17.4897 25.4539C17.5643 23.7552 17.8496 22.8379 18.0875 22.2264C18.3662 21.4721 18.8078 20.7859 19.3923 20.2286C19.956 19.651 20.6355 19.2093 21.3898 18.9309C22.0014 18.6931 22.9256 18.4078 24.6174 18.3329C26.452 18.2514 27.0025 18.231 31.6431 18.231C36.2909 18.231 36.8411 18.2514 38.6691 18.3329C40.3678 18.4078 41.2851 18.6931 41.8966 18.9309C42.6507 19.2093 43.337 19.651 43.8942 20.2286C44.4717 20.7926 44.9134 21.4721 45.1921 22.2264C45.4299 22.8379 45.7152 23.7619 45.7901 25.4539C45.8716 27.2885 45.892 27.8387 45.892 32.4796C45.892 37.1206 45.8716 37.6641 45.7901 39.4987Z" fill="#323031"/>
<path d="M31.6297 23.531C26.6969 23.531 22.6946 27.533 22.6946 32.4662C22.6946 37.3993 26.6969 41.4013 31.6297 41.4013C36.5629 41.4013 40.5649 37.3993 40.5649 32.4662C40.5649 27.533 36.5629 23.531 31.6297 23.531ZM31.6297 38.2622C28.4296 38.2622 25.8337 35.6666 25.8337 32.4662C25.8337 29.2657 28.4296 26.6702 31.6297 26.6702C34.8302 26.6702 37.4258 29.2657 37.4258 32.4662C37.4258 35.6666 34.8302 38.2622 31.6297 38.2622Z" fill="#323031"/>
<path d="M43.0042 23.1776C43.0042 24.3296 42.0702 25.2636 40.918 25.2636C39.7661 25.2636 38.832 24.3296 38.832 23.1776C38.832 22.0254 39.7661 21.0917 40.918 21.0917C42.0702 21.0917 43.0042 22.0254 43.0042 23.1776Z" fill="#323031"/>
</g>
<path d="M59.6425 43.6853C62.2621 37.4736 62.7131 30.5605 60.9228 24.0611C59.1325 17.5616 55.2052 11.8546 49.7743 7.86036C44.3435 3.86615 37.7255 1.81758 30.9878 2.04503C24.2501 2.27249 17.7854 4.7627 12.6363 9.11407C7.48712 13.4654 3.95367 19.4243 2.60576 26.0297C1.25785 32.6351 2.17406 39.502 5.20664 45.523C8.23921 51.5439 13.2114 56.3679 19.3212 59.2171C25.4311 62.0662 32.3226 62.7744 38.8842 61.2274" stroke="#323031" stroke-width="3" stroke-linejoin="round"/>
<defs>
<clipPath id="clip0">
<rect width="34.7826" height="34.7826" fill="white" transform="translate(14.1738 15.0714)"/>
</clipPath>
</defs>
</svg>
