<svg width="36" height="36" viewBox="0 0 36 36" fill="none" xmlns="http://www.w3.org/2000/svg">
<g clip-path="url(#clip0)">
<path d="M26.9337 21.312C24.501 21.312 22.522 23.2911 22.522 25.7238C22.522 28.1565 24.501 30.1356 26.9337 30.1356C29.3669 30.1356 31.3455 28.1565 31.3455 25.7238C31.3455 23.2911 29.3665 21.312 26.9337 21.312ZM26.9337 27.9297C25.7172 27.9297 24.7279 26.9403 24.7279 25.7238C24.7279 24.5073 25.7172 23.5179 26.9337 23.5179C28.1503 23.5179 29.1396 24.5073 29.1396 25.7238C29.1396 26.9404 28.1503 27.9297 26.9337 27.9297Z" fill="#323031"/>
<path d="M11.8603 21.312C9.42756 21.312 7.44849 23.2911 7.44849 25.7238C7.44849 28.1565 9.42756 30.1356 11.8603 30.1356C14.293 30.1356 16.272 28.1565 16.272 25.7238C16.272 23.2911 14.293 21.312 11.8603 21.312ZM11.8603 27.9297C10.6437 27.9297 9.65437 26.9403 9.65437 25.7238C9.65437 24.5073 10.6437 23.5179 11.8603 23.5179C13.0764 23.5179 14.0662 24.5073 14.0662 25.7238C14.0662 26.9404 13.0768 27.9297 11.8603 27.9297Z" fill="#323031"/>
<path d="M29.9049 8.68413C29.7174 8.3117 29.3361 8.07675 28.9192 8.07675H23.1104V10.2826H28.239L31.2423 16.2562L33.2137 15.265L29.9049 8.68413Z" fill="#323031"/>
<path d="M23.6251 24.6577H15.2795V26.8636H23.6251V24.6577Z" fill="#323031"/>
<path d="M8.55139 24.6577H4.72791C4.11869 24.6577 3.625 25.1515 3.625 25.7607C3.625 26.3699 4.11876 26.8636 4.72791 26.8636H8.55145C9.16067 26.8636 9.65437 26.3698 9.65437 25.7607C9.65437 25.1514 9.1606 24.6577 8.55139 24.6577Z" fill="#323031"/>
<path d="M35.2683 17.915L33.0989 15.1209C32.8904 14.8518 32.5687 14.6944 32.2279 14.6944H24.2132V6.97382C24.2132 6.3646 23.7194 5.87091 23.1103 5.87091H4.72791C4.11869 5.87091 3.625 6.36467 3.625 6.97382C3.625 7.58297 4.11876 8.07673 4.72791 8.07673H22.0073V15.7973C22.0073 16.4065 22.5011 16.9002 23.1102 16.9002H31.6878L33.294 18.9693V24.6576H30.2425C29.6333 24.6576 29.1396 25.1513 29.1396 25.7605C29.1396 26.3697 29.6334 26.8634 30.2425 26.8634H34.3969C35.0062 26.8634 35.4999 26.3696 35.4999 25.7605V18.5915C35.4999 18.3466 35.4183 18.1084 35.2683 17.915Z" fill="#323031"/>
<path d="M8.47799 19.0695H3.40442C2.79521 19.0695 2.30151 19.5633 2.30151 20.1724C2.30151 20.7816 2.79527 21.2753 3.40442 21.2753H8.47792C9.08714 21.2753 9.58083 20.7816 9.58083 20.1724C9.5809 19.5633 9.08714 19.0695 8.47799 19.0695Z" fill="#323031"/>
<path d="M11.0147 14.7311H1.60291C0.99376 14.7311 0.5 15.2249 0.5 15.8341C0.5 16.4433 0.99376 16.937 1.60291 16.937H11.0147C11.6239 16.937 12.1176 16.4433 12.1176 15.8341C12.1176 15.225 11.6239 14.7311 11.0147 14.7311Z" fill="#323031"/>
<path d="M12.8162 10.3931H3.40442C2.79521 10.3931 2.30151 10.8868 2.30151 11.496C2.30151 12.1052 2.79527 12.5989 3.40442 12.5989H12.8162C13.4254 12.5989 13.9191 12.1051 13.9191 11.496C13.9192 10.8868 13.4254 10.3931 12.8162 10.3931Z" fill="#323031"/>
</g>
<defs>
<clipPath id="clip0">
<rect width="35" height="35" fill="white" transform="translate(0.5 0.503265)"/>
</clipPath>
</defs>
</svg>
