<svg width="64" height="64" viewBox="0 0 64 64" fill="none" xmlns="http://www.w3.org/2000/svg">
<g clip-path="url(#clip0)">
<path d="M48.9564 21.6779C47.663 22.2453 46.2847 22.6214 44.8477 22.804C46.326 21.9214 47.4543 20.5344 47.9847 18.8627C46.6064 19.6844 45.0847 20.2649 43.463 20.5888C42.1543 19.1953 40.289 18.3323 38.2543 18.3323C34.3064 18.3323 31.1282 21.5366 31.1282 25.4649C31.1282 26.0301 31.176 26.5736 31.2934 27.091C25.3651 26.8018 20.1195 23.9605 16.5956 19.6323C15.9803 20.6997 15.6195 21.9214 15.6195 23.2366C15.6195 25.7062 16.8912 27.8953 18.7869 29.1627C17.6412 29.141 16.5173 28.8084 15.5651 28.2844C15.5651 28.3062 15.5651 28.3344 15.5651 28.3627C15.5651 31.8279 18.0369 34.7062 21.2782 35.3692C20.6977 35.5279 20.0651 35.604 19.4086 35.604C18.9521 35.604 18.4912 35.5779 18.0586 35.4823C18.9825 38.3062 21.6043 40.3823 24.7217 40.4497C22.2956 42.3475 19.2151 43.491 15.8803 43.491C15.2956 43.491 14.7347 43.4649 14.1738 43.3931C17.3325 45.4301 21.076 46.5931 25.113 46.5931C38.2347 46.5931 45.4086 35.7236 45.4086 26.3018C45.4086 25.9866 45.3977 25.6823 45.3825 25.3801C46.7977 24.3758 47.9869 23.1214 48.9564 21.6779Z" fill="#323031"/>
</g>
<path d="M59.6425 43.6853C62.2621 37.4736 62.7131 30.5605 60.9228 24.0611C59.1325 17.5616 55.2052 11.8546 49.7743 7.86036C44.3435 3.86615 37.7255 1.81758 30.9878 2.04503C24.2501 2.27249 17.7854 4.7627 12.6363 9.11407C7.48712 13.4654 3.95367 19.4243 2.60576 26.0297C1.25785 32.6351 2.17406 39.502 5.20664 45.523C8.23921 51.5439 13.2114 56.3679 19.3212 59.2171C25.4311 62.0662 32.3226 62.7744 38.8842 61.2274" stroke="#323031" stroke-width="3" stroke-linejoin="round"/>
<defs>
<clipPath id="clip0">
<rect width="34.7826" height="34.7826" fill="white" transform="translate(14.1738 15.0714)"/>
</clipPath>
</defs>
</svg>
