<svg width="20" height="21" viewBox="0 0 20 21" fill="none" xmlns="http://www.w3.org/2000/svg">
<g clip-path="url(#clip0)">
<path d="M10 10.0688C4.72947 10.0688 0.441406 14.3569 0.441406 19.6275C0.441406 19.8569 0.627605 20.0431 0.857012 20.0431C1.08642 20.0431 1.27262 19.8569 1.27262 19.6275C1.27262 14.8149 5.1875 10.9 10.0001 10.9C14.8126 10.9 18.7275 14.8149 18.7275 19.6275C18.7275 19.8569 18.9137 20.0431 19.1431 20.0431C19.3725 20.0431 19.5587 19.8569 19.5587 19.6275C19.5587 14.3561 15.2706 10.0688 10 10.0688Z" fill="#323031"/>
<path d="M9.99997 0.0429688C7.47981 0.0429688 5.42847 2.09349 5.42847 4.61448C5.42847 7.13546 7.47985 9.18598 9.99997 9.18598C12.5201 9.18598 14.5715 7.13546 14.5715 4.61448C14.5715 2.09349 12.5201 0.0429688 9.99997 0.0429688ZM9.99997 8.35481C7.9378 8.35481 6.25964 6.67665 6.25964 4.61448C6.25964 2.5523 7.9378 0.874141 9.99997 0.874141C12.0621 0.874141 13.7403 2.5523 13.7403 4.61448C13.7403 6.67665 12.0621 8.35481 9.99997 8.35481Z" fill="#323031"/>
</g>
<defs>
<clipPath id="clip0">
<rect width="20" height="20" fill="white" transform="translate(0 0.0429688)"/>
</clipPath>
</defs>
</svg>
